<svg id="Capa_1" enable-background="new 0 0 512 512" height="512" viewBox="0 0 512 512" width="512" xmlns="http://www.w3.org/2000/svg"><g><path d="m289.347 251.658c0 5.539 4.491 10.029 10.029 10.029 5.539 0 10.029-4.491 10.029-10.029v-35.955l27.784 40.233c2.888 4.174 7.727 5.933 12.332 4.503 4.685-1.463 7.712-5.813 7.712-11.081v-65.955c0-5.539-4.491-10.029-10.029-10.029s-10.029 4.491-10.029 10.029v37.212l-29.546-42.784c-2.494-3.612-7.044-5.179-11.238-3.876-4.19 1.307-7.044 5.186-7.044 9.575z"/><path d="m364.267 249.572c0 .618.064 1.22.171 1.808.177 2.405 1.204 4.676 2.927 6.385 1.879 1.866 4.419 2.912 7.066 2.912h.037c.568-.002 13.955-.053 19.311-.147 20.891-.365 36.054-18.45 36.054-43 0-25.807-14.78-43.147-36.778-43.147h-18.759c-2.663 0-5.217 1.059-7.099 2.944-1.88 1.885-2.935 4.441-2.93 7.104v.048.001zm28.789-55.13c15.513 0 16.719 17.672 16.719 23.088 0 15.652-8.21 22.802-16.345 22.945-2.106.036-5.589.067-9.003.09-.024-7.686-.053-17.832-.053-23.108 0-4.427-.017-15.007-.03-23.016h8.712z"/><path d="m112.023 173.374h-19.826c-5.539 0-10.029 4.491-10.029 10.029v68.255c0 2.668 1.063 5.225 2.953 7.108 1.88 1.872 4.424 2.922 7.076 2.922h.045 23.244c15.661 0 28.401-12.822 28.401-28.483 0-8.446-3.71-16.038-9.581-21.245 2.191-3.785 3.453-8.172 3.453-12.851-.001-14.191-11.546-25.735-25.736-25.735zm0 20.059c3.13 0 5.676 2.547 5.676 5.676 0 3.13-2.547 5.677-5.676 5.677-1.461 0-9.797.019-9.797.019v-11.371h9.797zm3.463 48.114c-2.473 0-8.133.02-13.26.039v-16.714c.868-.003 13.26-.01 13.26-.01 4.6 0 8.342 3.742 8.342 8.342 0 4.601-3.743 8.343-8.342 8.343z"/><path d="m196.386 261.687c2.353 0 4.717-.824 6.622-2.5 4.158-3.66 4.562-9.997.903-14.155l-15.855-18.014c10.729-4.037 18.355-14.11 18.355-25.877 0-15.311-12.907-27.768-28.772-27.768h-18.138c-.004 0-.008 0-.011 0-.004 0-.007 0-.011 0-5.539 0-10.029 4.491-10.029 10.029v68.255c0 5.539 4.49 10.029 10.029 10.029s10.029-4.491 10.029-10.029v-15.353l19.344 21.978c1.984 2.254 4.752 3.405 7.534 3.405zm-18.746-68.254c4.723 0 8.713 3.53 8.713 7.709s-3.99 7.709-8.713 7.709c-1.915 0-4.976.012-8.038.025-.014-2.962-.032-12.331-.041-15.444h8.079z"/><path d="m418.624 361.998c2.144-2.409 4.24-4.866 6.279-7.375 31.358-38.589 48.628-87.276 48.628-137.093 0-58.105-22.627-112.731-63.713-153.818s-95.713-63.712-153.818-63.712c-58.104 0-112.731 22.627-153.817 63.713s-63.713 95.713-63.713 153.817c0 49.835 17.282 98.537 48.661 137.133 2.028 2.495 4.112 4.937 6.244 7.333l-47.214 104.951c-1.567 3.484-1.019 7.555 1.413 10.5 2.432 2.947 6.326 4.254 10.045 3.373l38.737-9.173 18.827 35.068c1.751 3.262 5.151 5.285 8.835 5.285.117 0 .235-.002.352-.006 3.818-.134 7.229-2.425 8.796-5.909l39.426-87.638c11.717 4.883 23.87 8.753 36.326 11.502.728.161 1.455.238 2.171.238 4.603 0 8.751-3.189 9.785-7.87 1.193-5.409-2.223-10.762-7.632-11.955-43.203-9.535-82.462-33.81-110.546-68.352-28.481-35.031-44.166-79.239-44.166-124.48 0-108.886 88.586-197.472 197.472-197.472s197.472 88.586 197.472 197.472c0 45.223-15.675 89.418-44.136 124.443-28.065 34.536-67.301 58.816-110.481 68.368-5.408 1.196-8.823 6.55-7.626 11.959 1.196 5.408 6.554 8.827 11.959 7.626 12.418-2.747 24.535-6.609 36.219-11.477l39.418 87.636c1.567 3.483 4.977 5.775 8.795 5.909.118.004.235.006.353.006 3.684 0 7.083-2.023 8.834-5.284l18.836-35.068 38.738 9.173c3.717.883 7.612-.426 10.045-3.373 2.432-2.945 2.98-7.017 1.412-10.5zm-264.177 47.89-31.222 69.401-12.843-23.922c-2.149-4.005-6.729-6.069-11.147-5.015l-26.429 6.259 35.658-79.264c13.884 12.801 29.366 23.742 45.983 32.541zm258.319 40.465c-4.425-1.05-8.996 1.01-11.147 5.014l-12.851 23.926-31.216-69.403c16.617-8.799 32.1-19.739 45.985-32.539l35.659 79.262z"/><circle cx="256" cy="425.032" r="10"/><path d="m144.524 108.897c-4.22-3.589-10.549-3.074-14.138 1.146l-.338.4c-3.578 4.228-3.05 10.556 1.178 14.134 1.884 1.595 4.185 2.373 6.474 2.373 2.848 0 5.677-1.207 7.661-3.551l.31-.364c3.586-4.221 3.073-10.551-1.147-14.138z"/><path d="m211.403 78.59c.955 0 1.926-.138 2.887-.426l.777-.23c5.316-1.556 8.364-7.127 6.808-12.443-1.556-5.315-7.127-8.364-12.443-6.809l-.909.269c-5.305 1.593-8.315 7.184-6.722 12.49 1.303 4.344 5.288 7.149 9.602 7.149z"/><path d="m170.895 97.51c1.896 0 3.814-.537 5.515-1.66l.674-.441c4.645-3.017 5.966-9.228 2.949-13.874-3.017-4.645-9.229-5.968-13.874-2.949l-.798.523c-4.623 3.051-5.897 9.272-2.846 13.895 1.928 2.922 5.123 4.506 8.38 4.506z"/><path d="m255.796 72.119.778.002h.037c5.522 0 10.008-4.466 10.028-9.993.021-5.539-4.453-10.046-9.993-10.066l-.916-.002c-5.539 0-9.997 4.491-9.997 10.029s4.524 10.03 10.063 10.03z"/><path d="m335.729 96.213c1.706 1.133 3.633 1.675 5.539 1.675 3.247 0 6.433-1.575 8.364-4.483 3.064-4.614 1.807-10.838-2.808-13.903l-.774-.511c-4.63-3.04-10.847-1.755-13.89 2.872-3.042 4.629-1.757 10.847 2.872 13.89z"/><path d="m297.122 78.112.835.251c.96.288 1.929.425 2.882.425 4.315 0 8.302-2.808 9.603-7.154 1.59-5.306-1.422-10.896-6.729-12.486l-.853-.257c-5.308-1.589-10.895 1.433-12.48 6.74-1.583 5.309 1.435 10.897 6.742 12.481z"/><path d="m381.654 110.572c-3.562-4.243-9.889-4.793-14.13-1.231-4.242 3.562-4.793 9.888-1.231 14.13l.348.412c1.984 2.345 4.813 3.551 7.661 3.551 2.289 0 4.59-.78 6.473-2.373 4.229-3.578 4.756-9.906 1.178-14.134z"/><path d="m367.494 335.565c1.883 1.595 4.184 2.373 6.473 2.373 2.848 0 5.678-1.207 7.661-3.551l.32-.377c3.581-4.226 3.058-10.555-1.168-14.136-4.226-3.579-10.553-3.057-14.136 1.168l-.328.389c-3.578 4.229-3.051 10.557 1.178 14.134z"/><path d="m299.746 386.172c.933 0 1.881-.131 2.822-.406l.914-.271c5.305-1.595 8.311-7.188 6.716-12.493s-7.185-8.314-12.493-6.716l-.771.228c-5.316 1.556-8.364 7.127-6.809 12.443 1.281 4.375 5.281 7.215 9.621 7.215z"/><path d="m335.589 348.598-.673.441c-4.645 3.017-5.966 9.228-2.949 13.874 1.922 2.959 5.138 4.568 8.421 4.568 1.872 0 3.766-.523 5.452-1.619l.798-.523c4.623-3.051 5.897-9.272 2.845-13.895-3.048-4.625-9.273-5.899-13.894-2.846z"/><path d="m256.204 372.328-.778-.002c-.013 0-.024 0-.037 0-5.522 0-10.008 4.466-10.028 9.993-.02 5.539 4.454 10.046 9.993 10.066l.916.002c5.539 0 9.996-4.491 9.996-10.029-.001-5.539-4.524-10.03-10.062-10.03z"/><path d="m214.878 366.335-.835-.251c-5.308-1.595-10.897 1.422-12.486 6.729-1.59 5.306 1.423 10.896 6.728 12.486l.854.257c.957.286 1.924.422 2.874.422 4.319 0 8.307-2.812 9.606-7.163 1.584-5.307-1.434-10.895-6.741-12.48z"/><path d="m176.28 348.239c-4.612-3.071-10.837-1.819-13.905 2.794-3.068 4.611-1.817 10.837 2.794 13.905l.773.512c1.7 1.12 3.614 1.654 5.508 1.654 3.26 0 6.457-1.588 8.385-4.513 3.047-4.626 1.767-10.846-2.858-13.893z"/><path d="m130.37 333.903c1.984 2.345 4.813 3.551 7.661 3.551 2.288 0 4.59-.78 6.474-2.373 4.228-3.578 4.756-9.906 1.178-14.134l-.308-.366c-3.568-4.236-9.894-4.777-14.132-1.21-4.237 3.568-4.778 9.895-1.21 14.132z"/><g><path d="m274.771 261.424c-4.042 0-7.847-2.468-9.357-6.472l-17.43-46.185-17.601 46.213c-1.966 5.16-7.743 7.751-12.904 5.785-5.161-1.965-7.752-7.743-5.786-12.904l25.554-67.096c.029-.075.059-.151.089-.227 1.78-4.352 5.969-7.168 10.671-7.173h.013c4.698 0 8.886 2.806 10.674 7.15.038.091.074.183.108.274l25.322 67.099c1.95 5.168-.657 10.938-5.824 12.887-1.163.441-2.357.649-3.529.649z"/></g></g></svg>